<svg width="946" height="860" viewBox="0 0 946 860" fill="none" xmlns="http://www.w3.org/2000/svg">
<path d="M167.755 845.957L238.197 283.755L326.492 288.119L256.05 850.321L167.755 845.957Z" fill="#1B9272"/>
<path d="M333.766 288.479C378.513 290.691 399.034 418.215 379.576 573.506C360.118 728.797 308.07 852.892 263.324 850.681C218.577 848.469 277.926 734.138 297.384 578.847C316.841 423.556 289.019 286.268 333.766 288.479Z" fill="#59E6CE"/>
<path d="M333.766 288.479C378.513 290.691 399.034 418.215 379.576 573.506C360.118 728.797 308.07 852.892 263.324 850.681C218.577 848.469 277.926 734.138 297.384 578.847C316.841 423.556 289.019 286.268 333.766 288.479Z" fill="#1B9272"/>
<ellipse cx="283.299" cy="88.4029" rx="283.299" ry="88.4029" transform="matrix(0.124326 -0.992241 0.998781 0.0493649 92.0729 842.216)" fill="#9A85E1"/>
<path d="M669.409 859.805L597.408 297.822L683.714 277.761L755.715 839.744L669.409 859.805Z" fill="#1B9272"/>
<path d="M690.824 276.108C734.563 265.942 786.123 383.383 806.011 538.613C825.899 693.844 806.564 827.925 762.825 838.092C719.087 848.258 747.9 721.594 728.011 566.363C708.123 411.133 647.085 286.275 690.824 276.108Z" fill="#59E6CE"/>
<path d="M690.824 276.108C734.563 265.942 786.123 383.383 806.011 538.613C825.899 693.844 806.564 827.925 762.825 838.092C719.087 848.258 747.9 721.594 728.011 566.363C708.123 411.133 647.085 286.275 690.824 276.108Z" fill="#1B9272"/>
<ellipse cx="283.289" cy="88.607" rx="283.289" ry="88.607" transform="matrix(-0.127082 -0.991892 0.974034 -0.226403 595.432 877)" fill="#9A85E1"/>
<path d="M0 110H946V245H0V110Z" fill="#1B9272"/>
<path d="M946 253.774C946 318.516 734.435 371 473.132 371C211.828 371 0 318.516 0 253.774C0 189.032 196.103 253.774 457.407 253.774C718.71 253.774 946 189.032 946 253.774Z" fill="#1B9272"/>
<ellipse cx="473" cy="130.5" rx="473" ry="130.5" fill="#9A85E1"/>
</svg>
